<svg id="visual" viewBox="0 0 900 600" width="900" height="600" xmlns="http://www.w3.org/2000/svg" xmlns:xlink="http://www.w3.org/1999/xlink" version="1.1"><path d="M0 259L30 246C60 233 120 207 180 224C240 241 300 301 360 314C420 327 480 293 540 273C600 253 660 247 720 243C780 239 840 237 870 236L900 235L900 0L870 0C840 0 780 0 720 0C660 0 600 0 540 0C480 0 420 0 360 0C300 0 240 0 180 0C120 0 60 0 30 0L0 0Z" fill="#6198ff"></path><path d="M0 361L30 365C60 369 120 377 180 392C240 407 300 429 360 442C420 455 480 459 540 447C600 435 660 407 720 398C780 389 840 399 870 404L900 409L900 233L870 234C840 235 780 237 720 241C660 245 600 251 540 271C480 291 420 325 360 312C300 299 240 239 180 222C120 205 60 231 30 244L0 257Z" fill="#0066ff"></path><path d="M0 601L30 601C60 601 120 601 180 601C240 601 300 601 360 601C420 601 480 601 540 601C600 601 660 601 720 601C780 601 840 601 870 601L900 601L900 407L870 402C840 397 780 387 720 396C660 405 600 433 540 445C480 457 420 453 360 440C300 427 240 405 180 390C120 375 60 367 30 363L0 359Z" fill="#004cbb"></path></svg>