<svg id="b54b47cf-9e38-428f-9cf7-3883409fb3f7" data-name="Layer 1" xmlns="http://www.w3.org/2000/svg" width="997" height="420.61854" viewBox="0 0 997 420.61854"><path d="M405.68918,243.60385c14.47806-6.13164,32.62707-5.45739,44.47214,4.88184a72.44174,72.44174,0,0,0-43.0526,24.90287c-4.20935,5.07579-8.36266,11.15959-14.83552,12.41848-4.02755.7834-8.23535-.56485-11.6736-2.80365-3.43836-2.239-6.2372-5.312-8.99527-8.34984l-.96025-.35645C379.90159,261.58846,391.21112,249.73549,405.68918,243.60385Z" transform="translate(-101.5 -239.69073)" fill="#f0f0f0"/><path d="M449.97986,248.76121a61.91816,61.91816,0,0,0-37.87218,4.12114,26.66393,26.66393,0,0,0-7.0754,4.4423,15.293,15.293,0,0,0-4.23609,6.84373c-.77225,2.427-1.28112,4.999-2.62989,7.19606a9.364,9.364,0,0,1-6.38838,4.22309c-3.2311.61758-6.4914.03735-9.66-.64086-3.51812-.753-7.16041-1.59094-10.73639-.7078-.43328.107-.574-.57156-.14135-.6784,6.22159-1.5365,12.23931,1.88538,18.4648,1.57659,2.90492-.14409,5.784-1.16449,7.52379-3.61056,1.52135-2.139,2.04837-4.79081,2.80905-7.255a16.31886,16.31886,0,0,1,3.89266-6.846,24.65047,24.65047,0,0,1,6.8785-4.69795,60.072,60.072,0,0,1,17.99924-5.3414,63.01613,63.01613,0,0,1,21.392.71793c.43555.09038.21235.74691-.22034.65712Z" transform="translate(-101.5 -239.69073)" fill="#fff"/><path d="M415.83128,250.94434a9.28971,9.28971,0,0,1,4.88381-10.99317c.40243-.19195.71962.42439.31665.61659a8.60206,8.60206,0,0,0-4.52206,10.23522c.1279.42717-.55123.56608-.6784.14136Z" transform="translate(-101.5 -239.69073)" fill="#fff"/><path d="M401.02568,262.88621a17.90509,17.90509,0,0,0,12.92964,1.75895c.43364-.10547.57448.57306.14135.6784a18.624,18.624,0,0,1-13.45074-1.8577c-.38969-.21852-.00783-.797.37975-.57965Z" transform="translate(-101.5 -239.69073)" fill="#fff"/><path d="M435.68125,247.28905a5.25843,5.25843,0,0,0,2.71376,4.1871c.39227.21347.01.79174-.37975.57965a5.89251,5.89251,0,0,1-3.01241-4.6254.35813.35813,0,0,1,.26853-.40988.34824.34824,0,0,1,.40987.26853Z" transform="translate(-101.5 -239.69073)" fill="#fff"/><path d="M448.7444,301.70154c-.24873-.12634-.49746-.25267-.7514-.37632a69.25114,69.25114,0,0,0-10.41709-4.204c-.27545-.09075-.556-.17858-.83346-.26123a73.00535,73.00535,0,0,0-26.72586-2.85943,70.89779,70.89779,0,0,0-10.64214,1.66851c-4.83348,1.14-9.98351,2.76057-14.77039,2.25217a12.16052,12.16052,0,0,1-1.48694-.23463l-12.8334-22.19035c-.00386-.06507-.0129-.12747-.0169-.19278l-.55291-.86257c.17754-.05516.36285-.10857.54039-.16374.10285-.03243.20856-.05991.31141-.09234.06947-.02006.13912-.03988.20066-.06195.0231-.00676.04634-.01328.06441-.01713.06154-.02206.121-.036.17753-.05517q1.55257-.45205,3.11689-.88385c.00507-.00293.00507-.00293.013-.00092a104.24514,104.24514,0,0,1,24.32935-3.93621c.24593-.007.4968-.01713.7486-.014a67.65225,67.65225,0,0,1,11.02122.64582,59.80917,59.80917,0,0,1,5.9379,1.16691,49.73353,49.73353,0,0,1,14.30082,6.10634c8.805,5.52862,15.74382,13.81169,18.09608,23.80186C448.63216,301.19211,448.68947,301.443,448.7444,301.70154Z" transform="translate(-101.5 -239.69073)" fill="#f0f0f0"/><path d="M448.43391,301.81453a61.91821,61.91821,0,0,0-32.72-19.51117,26.66393,26.66393,0,0,0-8.32388-.71295,15.293,15.293,0,0,0-7.50268,2.91392c-2.07783,1.47289-4.03266,3.22012-6.43235,4.16228a9.364,9.364,0,0,1-7.64335-.47435c-2.95168-1.45224-5.20551-3.87845-7.32712-6.32768-2.35564-2.7194-4.75933-5.58133-8.14626-7.02918-.41037-.17543-.11417-.80193.29558-.62677,5.89268,2.519,8.63728,8.87428,13.7939,12.3759,2.40617,1.63392,5.31932,2.55261,8.18113,1.647,2.50253-.7919,4.51991-2.59193,6.61087-4.10145a16.31872,16.31872,0,0,1,7.22984-3.12251,24.65019,24.65019,0,0,1,8.32059.39029,60.07175,60.07175,0,0,1,17.58727,6.572,63.016,63.016,0,0,1,16.64805,13.45267c.29334.33439-.28014.72422-.57156.392Z" transform="translate(-101.5 -239.69073)" fill="#fff"/><path d="M419.85379,282.99784a9.28968,9.28968,0,0,1,10.51809-5.837c.43688.089.31906.7721-.1184.683a8.602,8.602,0,0,0-9.77292,5.44966c-.15507.41807-.781.1201-.62677-.29558Z" transform="translate(-101.5 -239.69073)" fill="#fff"/><path d="M400.84251,283.61875a17.90511,17.90511,0,0,0,9.26459,9.189c.40974.17688.11366.80343-.29558.62677a18.624,18.624,0,0,1-9.62121-9.58154c-.17958-.4091.47359-.64106.6522-.23419Z" transform="translate(-101.5 -239.69073)" fill="#fff"/><path d="M437.90361,292.03034a5.25844,5.25844,0,0,0-.35414,4.977c.18468.40662-.46872.63816-.65219.23418a5.8925,5.8925,0,0,1,.37956-5.5068.35813.35813,0,0,1,.46118-.16559.34823.34823,0,0,1,.16559.46117Z" transform="translate(-101.5 -239.69073)" fill="#fff"/><polygon points="851.45 409.096 840.089 409.096 834.684 365.272 851.452 365.273 851.45 409.096" fill="#a0616a"/><path d="M955.84782,659.80028l-36.63466-.00135v-.46337a14.26,14.26,0,0,1,14.25923-14.259h.00091l22.3752.0009Z" transform="translate(-101.5 -239.69073)" fill="#2f2e41"/><polygon points="939.916 404.178 928.682 405.876 916.787 363.353 931.514 360.847 939.916 404.178" fill="#a0616a"/><path d="M1045.92744,654.32517l-36.22322,5.47511-.06927-.45816a14.26,14.26,0,0,1,11.96745-16.23038l.0009-.00013,22.12392-3.34394Z" transform="translate(-101.5 -239.69073)" fill="#2f2e41"/><path d="M717.33993,659.80028H377.84871v-339.491H717.33993Z" transform="translate(-101.5 -239.69073)" fill="#fff"/><path d="M717.33993,659.80028H377.84871v-339.491H717.33993Zm-334.47527-5.016H712.324V325.32522H382.86466Z" transform="translate(-101.5 -239.69073)" fill="#f0f0f0"/><rect x="346.34705" y="226.56141" width="217.72637" height="7.68585" fill="#6c63ff"/><rect x="346.34705" y="246.54462" width="217.72637" height="7.68585" fill="#6c63ff"/><rect x="346.34705" y="266.52783" width="217.72637" height="7.68585" fill="#6c63ff"/><circle cx="333.13117" cy="231.53036" r="5.01595" fill="#6c63ff"/><rect x="346.34705" y="140.45426" width="217.72637" height="7.68585" fill="#f0f0f0"/><rect x="346.34705" y="160.43747" width="217.72637" height="7.68585" fill="#f0f0f0"/><rect x="346.34705" y="180.42068" width="217.72637" height="7.68585" fill="#f0f0f0"/><circle cx="333.13117" cy="144.58723" r="5.01595" fill="#f0f0f0"/><rect x="346.34705" y="313.50455" width="217.72637" height="7.68585" fill="#f0f0f0"/><rect x="346.34705" y="333.48776" width="217.72637" height="7.68585" fill="#f0f0f0"/><rect x="346.34705" y="353.47096" width="217.72637" height="7.68585" fill="#f0f0f0"/><circle cx="333.13117" cy="317.63751" r="5.01595" fill="#e5e5e5"/><path id="a663a212-5a7a-4ecb-8a2f-6fa6ae0edb66" data-name="Path 138" d="M899.57762,525.691H702.04435c-2.95927-.00753-5.35791-4.91325-5.36168-10.97034V367.76644c0-6.05586,2.40241-10.96027,5.36168-10.97034H899.57762c2.95927.00754,5.35792,4.91325,5.36168,10.97034V514.71939C904.93554,520.77525,902.533,525.68342,899.57762,525.691Z" transform="translate(-101.5 -239.69073)" fill="#fff"/><path id="a98f1666-d830-4ea5-aaaf-8bede3f0142e" data-name="Path 138" d="M899.57762,525.691H702.04435c-2.95927-.00753-5.35791-4.91325-5.36168-10.97034V367.76644c0-6.05586,2.40241-10.96027,5.36168-10.97034H899.57762c2.95927.00754,5.35792,4.91325,5.36168,10.97034V514.71939C904.93554,520.77525,902.533,525.68342,899.57762,525.691ZM702.04435,361.18394c-1.77628,0-3.215,2.9492-3.21755,6.58242v146.953c0,3.63322,1.44119,6.57865,3.21755,6.58241H899.57762c1.77629,0,3.215-2.948,3.21755-6.58241V367.76644c0-3.63323-1.44119-6.57865-3.21755-6.58242Z" transform="translate(-101.5 -239.69073)" fill="#e6e6e6"/><rect x="672.8845" y="236.92799" width="53.1712" height="3.99647" fill="#6c63ff"/><rect x="665.7702" y="247.31257" width="66.91616" height="3.99647" fill="#6c63ff"/><path d="M835.52879,426.20517a34.7306,34.7306,0,0,1-51.18006,30.57527l-.00674-.00675a34.71986,34.71986,0,1,1,51.1868-30.56852Z" transform="translate(-101.5 -239.69073)" fill="#cacaca"/><circle cx="699.48791" cy="175.39126" r="9.43785" fill="#fff"/><path d="M817.10306,444.02072a48.645,48.645,0,0,1-32.5774-.12617l-.00675-.00467,7.03115-13.87924h18.8757Z" transform="translate(-101.5 -239.69073)" fill="#fff"/><polygon points="560.144 338.547 708.36 338.547 708.36 273.559 706.079 273.559 706.079 336.266 560.144 336.266 560.144 338.547" fill="#3f3d56"/><circle cx="707.21982" cy="284.08907" r="12.54135" fill="#3f3d56"/><path id="afd00def-263c-4571-9f5d-7c41b30310dc" data-name="Path 138" d="M387.57762,435.691H190.04435c-2.95927-.00753-5.35791-4.91325-5.36168-10.97034V277.76644c0-6.05586,2.40241-10.96027,5.36168-10.97034H387.57762c2.95927.00754,5.35792,4.91325,5.36168,10.97034V424.71939C392.93554,430.77525,390.533,435.68342,387.57762,435.691Z" transform="translate(-101.5 -239.69073)" fill="#fff"/><path id="e92130d0-80d8-429c-a3ca-73c1ffe05a6e" data-name="Path 138" d="M387.57762,435.691H190.04435c-2.95927-.00753-5.35791-4.91325-5.36168-10.97034V277.76644c0-6.05586,2.40241-10.96027,5.36168-10.97034H387.57762c2.95927.00754,5.35792,4.91325,5.36168,10.97034V424.71939C392.93554,430.77525,390.533,435.68342,387.57762,435.691ZM190.04435,271.18394c-1.77628,0-3.215,2.9492-3.21755,6.58242v146.953c0,3.63322,1.44119,6.57865,3.21755,6.58241H387.57762c1.77629,0,3.215-2.948,3.21755-6.58241V277.76644c0-3.63323-1.44119-6.57865-3.21755-6.58242Z" transform="translate(-101.5 -239.69073)" fill="#e6e6e6"/><path d="M332.66362,312.70547a48.94887,48.94887,0,0,0-33.70073-15.34982v49.05057Z" transform="translate(-101.5 -239.69073)" fill="#3f3d56"/><path d="M332.66362,318.8129l-33.70073,33.70074h47.09766A48.92277,48.92277,0,0,0,332.66362,318.8129Z" transform="translate(-101.5 -239.69073)" fill="#e4e4e4"/><path d="M346.11086,356.03832a49.22567,49.22567,0,0,1-.845,9.11272c-.04375.23795-.08987.47347-.13848.709a48.69428,48.69428,0,0,1-5.68177,14.8892c-.14322.24766-.29142.49533-.4395.73814v.00243A49.24571,49.24571,0,0,1,329.148,393.152c-.19183.16753-.38366.33265-.57786.49533a48.87984,48.87984,0,0,1-29.60841,11.44127V356.03832Z" transform="translate(-101.5 -239.69073)" fill="#f0f0f0"/><path d="M294.19823,405.13148c.65194,0,1.3-.01663,1.94585-.04182v-49.0525l-35.673,35.67291A48.92355,48.92355,0,0,0,294.19823,405.13148Z" transform="translate(-101.5 -239.69073)" fill="#cacaca"/><path d="M294.26487,303.41932a49.09429,49.09429,0,0,0-49.09432,49.09432h51.091V303.46308C295.59892,303.43657,294.934,303.41932,294.26487,303.41932Z" transform="translate(-101.5 -239.69073)" fill="#6c63ff"/><path d="M282.55249,356.03832l-10.32186,10.32191-.33754.33751-.00735.00728-9.001,8.99859-.34228.34237-9.72467,9.7246-.3424.34235v.00244l-5.59676,5.59438a48.95279,48.95279,0,0,1-15.36754-35.67143Z" transform="translate(-101.5 -239.69073)" fill="#6c63ff"/><polygon points="346.913 250.547 198.698 250.547 198.698 185.559 200.978 185.559 200.978 248.266 346.913 248.266 346.913 250.547" fill="#3f3d56"/><circle cx="199.83775" cy="196.08907" r="12.54135" fill="#3f3d56"/><path d="M1006.385,431.60761l-12.61508,3.30527.83922,20.45258.104,37.23786a7.46274,7.46274,0,1,0,9.87661,1.241l3.87651-37.37427Z" transform="translate(-101.5 -239.69073)" fill="#a0616a"/><path d="M1009.91494,443.90572l-18.43906-6.20933-.04321-.27784c-.02738-.17467-2.73225-17.6388-2.699-29.62033a9.1795,9.1795,0,0,1,3.05986-7.099,9.62766,9.62766,0,0,1,10.42151-1.67609,10.29794,10.29794,0,0,1,6.36589,9.15788Z" transform="translate(-101.5 -239.69073)" fill="#e4e4e4"/><path d="M975.611,442.19226l-28.203-7.30042-13.03687,43.90658-.46337,163.5693,21.5669-.135,9.01547-132.38857,57.45777,122.32945,23.16845-2.78022L994.60915,498.25993s2.78021-23.16846-6.0238-34.75269l1.85348-12.0476Z" transform="translate(-101.5 -239.69073)" fill="#2f2e41"/><path d="M991.27384,454.70349l-2.13449-.03349-43.3413-17.32385,20.73486-46.18125,9.84433,1.78922-1.79216-7.16864,21.75188-5.317,3.78456,15.13823,5.58463,5.07624a9.81853,9.81853,0,0,1,2.708,10.36336l-12.86437,38.59358a4.3374,4.3374,0,0,1-4.276,5.06358Z" transform="translate(-101.5 -239.69073)" fill="#e4e4e4"/><path d="M958.67921,420.1228l-11.40235-6.32862-13.52723,15.36315-25.65816,26.98754a7.46276,7.46276,0,1,0,6.28123,7.72229l28.62956-24.3354Z" transform="translate(-101.5 -239.69073)" fill="#a0616a"/><path d="M952.73216,431.45118l-9.03683-17.23025.16055-.23075c.101-.14489,10.21471-14.63776,18.51837-23.27488a9.1797,9.1797,0,0,1,7.11736-3.01656,9.63282,9.63282,0,0,1,8.69095,5.99026,10.29679,10.29679,0,0,1-1.727,11.01771Z" transform="translate(-101.5 -239.69073)" fill="#e4e4e4"/><circle cx="878.74342" cy="120.67824" r="17.28264" fill="#a0616a"/><path d="M959.44629,350.23513c2.90624-5.203,4.01828-7.37644,7.76553-10.54032,3.3137-2.79813,7.38967-3.61986,10.67727-.96857a19.68847,19.68847,0,1,1-11.8795,18.07219,19.85076,19.85076,0,0,1,.13414-2.2262C963.286,354.17089,962.304,350.63647,959.44629,350.23513Z" transform="translate(-101.5 -239.69073)" fill="#2f2e41"/><path d="M195.09189,501.3224a6.4925,6.4925,0,0,0,1.54616-9.83473l8.43715-84.66573-14.08832.93486-3.90288,83.37a6.52772,6.52772,0,0,0,8.00789,10.19564Z" transform="translate(-101.5 -239.69073)" fill="#ffb8b8"/><path d="M185.27941,403.686l3.69361,28.07242-.51275,17.20513,15.49489,1.4187,3.10549-14.30971,1.7109-37.88371a11.30528,11.30528,0,0,0-9.98815-11.73969h0a11.30528,11.30528,0,0,0-12.51327,9.74714Z" transform="translate(-101.5 -239.69073)" fill="#2f2e41"/><polygon points="143.119 410.998 152.518 410.998 156.989 374.744 143.117 374.744 143.119 410.998" fill="#ffb7b7"/><path d="M242.2212,647.62042l18.5105-.00075h.00075a11.797,11.797,0,0,1,11.79634,11.79616v.38333l-30.307.00112Z" transform="translate(-101.5 -239.69073)" fill="#2f2e41"/><polygon points="65.508 410.998 74.907 410.998 79.378 374.744 65.506 374.744 65.508 410.998" fill="#ffb7b7"/><path d="M164.60989,647.62042l18.5105-.00075h.00075a11.797,11.797,0,0,1,11.79633,11.79616v.38333l-30.307.00112Z" transform="translate(-101.5 -239.69073)" fill="#2f2e41"/><circle cx="102.05755" cy="113.03569" r="20.37842" fill="#ffb8b8"/><path d="M206.19075,381.37813l-14.14217,1.61624,0,0a37.63345,37.63345,0,0,0-4.81206,33.98233l10.671,30.8696s-14.81312,29.69632-14.81312,57.26788-28.21074,125.98786-28.21074,125.98786L194.593,635.2442l17.32652-104.84141,23.8768,104.41881,27.25759-4.43728L248.04113,493.48l-9.92048-45.0613-.42259-21.97511s4.21816-16.48915-6.339-27.04628l-12.88924-17.96043Z" transform="translate(-101.5 -239.69073)" fill="#2f2e41"/><path d="M305.88832,453.97135a7.11365,7.11365,0,0,0-8.6348-6.66518l-76.90235-52.6971-6.52167,14.02828L291.875,456.29553a7.15225,7.15225,0,0,0,14.01337-2.32418Z" transform="translate(-101.5 -239.69073)" fill="#ffb8b8"/><path d="M206.91233,411.977l28.917,11.23608,16.26046,9.554,9.52373-14.14014-12.113-10.52019-35.49719-21.596a12.38688,12.38688,0,0,0-16.53981,3.41359l0,0a12.38688,12.38688,0,0,0,2.77461,17.15613Z" transform="translate(-101.5 -239.69073)" fill="#2f2e41"/><path d="M227.31274,345.44866H197.36732V332.39553c6.57268-2.6112,13.00439-4.83189,16.89229,0a13.05321,13.05321,0,0,1,13.05313,13.05312Z" transform="translate(-101.5 -239.69073)" fill="#2f2e41"/><path d="M202.70944,331.092c-17.90176.07922-22.91271,22.43938-22.91271,35.09856,0,7.05989,3.1928,9.585,8.20994,10.43935l1.77186-9.44985,4.15,9.85649c1.40932.007,2.88987-.02024,4.42478-.04874l1.40707-2.89727,3.13768,2.8453c12.56686.0187,30.82879-1.10348,22.72376-10.74527C214.764,353.27408,218.3132,331.023,202.70944,331.092Z" transform="translate(-101.5 -239.69073)" fill="#2f2e41"/><path d="M1023.27757,401.36242a20.994,20.994,0,0,1-.34625-9.17844c.83507-5.88554,2.71349-11.56345,4.43171-17.25425,1.71776-5.691,3.29343-11.494,3.49213-17.43517.19824-5.94131-1.09006-12.10032-4.63245-16.87379-3.54282-4.77368-9.5826-7.90185-15.45895-7.00427-5.61458.85761-10.51775,5.92216-10.54679,11.54136-1.005,1.8186.29336,4.30208,2.14223,5.38081,1.939,1.13144,4.27692,1.2816,6.42764,1.925a16.11506,16.11506,0,0,1,9.65743,8.54728,20.83443,20.83443,0,0,1,1.40011,12.97666c-.84692,4.22885-2.79587,8.14214-4.25631,12.20012-1.46091,4.05783-2.43752,8.51324-1.264,12.66322a13.33592,13.33592,0,0,0,14.9457,9.10653A9.8459,9.8459,0,0,1,1023.27757,401.36242Z" transform="translate(-101.5 -239.69073)" fill="#2f2e41"/><path d="M1097.5,660.30927h-995a1,1,0,0,1,0-2h995a1,1,0,0,1,0,2Z" transform="translate(-101.5 -239.69073)" fill="#cacaca"/><path d="M870.46389,611.69377c-1.94037-15.60277-11.61011-30.976-26.49043-36.05359a72.44169,72.44169,0,0,1-.00359,49.73611c-2.28653,6.185-5.47371,12.8261-3.32292,19.05963,1.33819,3.87867,4.6119,6.8462,8.27125,8.70172,3.65957,1.85551,7.72093,2.73989,11.73147,3.60657l.78929.65279C867.80562,643.02075,872.40426,627.29653,870.46389,611.69377Z" transform="translate(-101.5 -239.69073)" fill="#f0f0f0"/><path d="M843.8258,575.93521a61.91811,61.91811,0,0,1,15.39275,34.84751,26.66378,26.66378,0,0,1-.3033,8.34885,15.29311,15.29311,0,0,1-3.80357,7.09323c-1.71435,1.88356-3.68607,3.61171-4.9127,5.8792a9.364,9.364,0,0,0-.45748,7.64439c1.083,3.1062,3.21751,5.638,5.39092,8.0414,2.41317,2.66848,4.962,5.402,5.98775,8.93967.12429.42864.78213.21073.658-.21727-1.78468-6.155-7.75955-9.65115-10.609-15.19488-1.32958-2.5868-1.88766-5.59-.64119-8.32061,1.09-2.38782,3.12171-4.17164,4.874-6.06379a16.31878,16.31878,0,0,0,3.97748-6.79707,24.6502,24.6502,0,0,0,.62317-8.3064,60.07148,60.07148,0,0,0-4.38728-18.25527,63.016,63.016,0,0,0-11.3311-18.15868c-.29629-.33179-.75288.19011-.45853.51972Z" transform="translate(-101.5 -239.69073)" fill="#fff"/><path d="M859.032,606.58911a9.2897,9.2897,0,0,0,7.07129-9.73129c-.03531-.44446-.72764-.41048-.69228.03457a8.60206,8.60206,0,0,1-6.59628,9.03869c-.43381.10314-.21406.76058.21727.658Z" transform="translate(-101.5 -239.69073)" fill="#fff"/><path d="M856.10671,625.38424a17.90514,17.90514,0,0,1-7.99572-10.312c-.1258-.42819-.78367-.2104-.658.21727a18.62407,18.62407,0,0,0,8.34207,10.7137c.38426.22794.69384-.39223.31167-.61893Z" transform="translate(-101.5 -239.69073)" fill="#fff"/><path d="M852.25861,587.57588a5.25841,5.25841,0,0,1-4.9832-.253c-.38118-.23269-.69036.38775-.31166.61893a5.89245,5.89245,0,0,0,5.51213.29206.35812.35812,0,0,0,.22038-.43764.34824.34824,0,0,0-.43765-.22038Z" transform="translate(-101.5 -239.69073)" fill="#fff"/><path d="M798.61616,603.50862c.23388.15206.46777.30413.70194.46205a69.25183,69.25183,0,0,1,8.85445,6.91292c.21647.193.43293.39188.6434.59071a73.00551,73.00551,0,0,1,15.85526,21.70389,70.89709,70.89709,0,0,1,3.8835,10.04776c1.433,4.75485,2.60841,10.02433,5.445,13.91362a12.16343,12.16343,0,0,0,.94753,1.1697h25.63412c.05825-.02924.1168-.05265.17534-.08189l1.02349.0468c-.04112-.1813-.08767-.36846-.12879-.54976-.02342-.10527-.05255-.21054-.076-.31581-.01742-.07018-.03513-.14039-.04684-.20472-.00571-.02338-.01171-.04676-.01742-.06432-.01171-.06433-.02941-.12284-.04112-.18131q-.38595-1.57031-.79532-3.14065c0-.00585,0-.00585-.00571-.01171a104.24442,104.24442,0,0,0-8.77278-23.03148c-.11709-.21639-.23389-.43864-.36268-.655a67.65309,67.65309,0,0,0-6.07669-9.21728,59.81081,59.81081,0,0,0-3.98288-4.556,49.734,49.734,0,0,0-12.44553-9.32255c-9.194-4.85426-19.83814-6.71409-29.66383-3.74888C799.11334,603.35073,798.86746,603.42673,798.61616,603.50862Z" transform="translate(-101.5 -239.69073)" fill="#f0f0f0"/><path d="M798.67379,603.834a61.91817,61.91817,0,0,1,33.27086,18.55628,26.66424,26.66424,0,0,1,4.78442,6.8487,15.29316,15.29316,0,0,1,1.23367,7.95356c-.23478,2.53608-.76862,5.103-.38283,7.652a9.36394,9.36394,0,0,0,4.23718,6.37905c2.73485,1.82809,5.96347,2.56449,9.14582,3.17489,3.53339.67775,7.21422,1.32573,10.16319,3.5328.35731.26741.75135-.30264.39458-.56966-5.1307-3.83992-12.00623-3.03412-17.619-5.74494-2.619-1.26491-4.87274-3.32677-5.52154-6.25749-.56735-2.56279-.01911-5.21031.2408-7.77609a16.31878,16.31878,0,0,0-.91651-7.82181,24.65023,24.65023,0,0,0-4.50345-7.00737A60.07156,60.07156,0,0,0,818.707,610.81952a63.01618,63.01618,0,0,0-19.98-7.67659c-.43633-.08652-.48668.60508-.0532.691Z" transform="translate(-101.5 -239.69073)" fill="#fff"/><path d="M829.27088,619.15419a9.28969,9.28969,0,0,0-.21289-12.0273c-.29578-.33362-.82811.11035-.53193.44441a8.60206,8.60206,0,0,1,.17516,11.18831c-.28428.34353.287.73616.56966.39458Z" transform="translate(-101.5 -239.69073)" fill="#fff"/><path d="M838.25114,635.9223a17.90515,17.90515,0,0,1-12.59269-3.41962c-.35824-.26614-.7524.30383-.39459.56966a18.62407,18.62407,0,0,0,13.11107,3.53178c.444-.04936.31784-.73091-.12379-.68182Z" transform="translate(-101.5 -239.69073)" fill="#fff"/><path d="M812.4154,608.05125a5.25841,5.25841,0,0,1-4.13111,2.79826c-.44445.0437-.31776.72524.12379.68182a5.89252,5.89252,0,0,0,4.577-3.08549.35813.35813,0,0,0-.08754-.48212.34823.34823,0,0,0-.48212.08753Z" transform="translate(-101.5 -239.69073)" fill="#fff"/><path d="M293.59368,611.69377c1.94037-15.60277,11.61012-30.976,26.49043-36.05359a72.44169,72.44169,0,0,0,.00359,49.73611c2.28653,6.185,5.47371,12.8261,3.32292,19.05963-1.33819,3.87867-4.6119,6.8462-8.27124,8.70172-3.65958,1.85551-7.72094,2.73989-11.73147,3.60657l-.7893.65279C296.252,643.02075,291.65332,627.29653,293.59368,611.69377Z" transform="translate(-101.5 -239.69073)" fill="#f0f0f0"/><path d="M320.23177,575.93521A61.91818,61.91818,0,0,0,304.839,610.78272a26.66408,26.66408,0,0,0,.3033,8.34885,15.29311,15.29311,0,0,0,3.80357,7.09323c1.71435,1.88356,3.68607,3.61171,4.91271,5.8792a9.364,9.364,0,0,1,.45747,7.64439c-1.083,3.1062-3.2175,5.638-5.39092,8.0414-2.41317,2.66848-4.962,5.402-5.98775,8.93967-.12429.42864-.78213.21073-.658-.21727,1.78468-6.155,7.75956-9.65115,10.609-15.19488,1.32959-2.5868,1.88766-5.59.6412-8.32061-1.09-2.38782-3.12171-4.17164-4.874-6.06379a16.31881,16.31881,0,0,1-3.97749-6.79707,24.6502,24.6502,0,0,1-.62317-8.3064,60.07148,60.07148,0,0,1,4.38728-18.25527,63.01586,63.01586,0,0,1,11.33111-18.15868c.29628-.33179.75288.19011.45852.51972Z" transform="translate(-101.5 -239.69073)" fill="#fff"/><path d="M305.02555,606.58911a9.28968,9.28968,0,0,1-7.07129-9.73129c.0353-.44446.72763-.41048.69228.03457a8.602,8.602,0,0,0,6.59628,9.03869c.43381.10314.21406.76058-.21727.658Z" transform="translate(-101.5 -239.69073)" fill="#fff"/><path d="M307.95087,625.38424a17.90513,17.90513,0,0,0,7.99571-10.312c.1258-.42819.78368-.2104.658.21727a18.62408,18.62408,0,0,1-8.34208,10.7137c-.38426.22794-.69384-.39223-.31166-.61893Z" transform="translate(-101.5 -239.69073)" fill="#fff"/><path d="M311.799,587.57588a5.25841,5.25841,0,0,0,4.9832-.253c.38119-.23269.69037.38775.31167.61893a5.89247,5.89247,0,0,1-5.51214.29206.35812.35812,0,0,1-.22038-.43764.34824.34824,0,0,1,.43765-.22038Z" transform="translate(-101.5 -239.69073)" fill="#fff"/><path d="M365.44141,603.50862c-.23388.15206-.46776.30413-.70193.46205a69.25122,69.25122,0,0,0-8.85446,6.91292c-.21646.193-.43293.39188-.64339.59071a73.00534,73.00534,0,0,0-15.85526,21.70389,70.89709,70.89709,0,0,0-3.8835,10.04776c-1.433,4.75485-2.60842,10.02433-5.445,13.91362a12.16343,12.16343,0,0,1-.94753,1.1697H303.47622c-.05826-.02924-.1168-.05265-.17535-.08189l-1.02349.0468c.04113-.1813.08767-.36846.1288-.54976.02341-.10527.05254-.21054.076-.31581.01742-.07018.03512-.14039.04683-.20472.00571-.02338.01171-.04676.01742-.06432.01171-.06433.02942-.12284.04112-.18131q.386-1.57031.79532-3.14065c0-.00585,0-.00585.00572-.01171a104.24442,104.24442,0,0,1,8.77278-23.03148c.11708-.21639.23388-.43864.36267-.655a67.65222,67.65222,0,0,1,6.0767-9.21728,59.80641,59.80641,0,0,1,3.98288-4.556,49.7339,49.7339,0,0,1,12.44552-9.32255c9.194-4.85426,19.83814-6.71409,29.66383-3.74888C364.94423,603.35073,365.19011,603.42673,365.44141,603.50862Z" transform="translate(-101.5 -239.69073)" fill="#f0f0f0"/><path d="M365.38378,603.834a61.91811,61.91811,0,0,0-33.27085,18.55628,26.664,26.664,0,0,0-4.78442,6.8487,15.29306,15.29306,0,0,0-1.23368,7.95356c.23478,2.53608.76863,5.103.38284,7.652a9.364,9.364,0,0,1-4.23718,6.37905c-2.73486,1.82809-5.96348,2.56449-9.14583,3.17489-3.53339.67775-7.21421,1.32573-10.16318,3.5328-.35731.26741-.75136-.30264-.39459-.56966,5.1307-3.83992,12.00623-3.03412,17.619-5.74494,2.619-1.26491,4.87273-3.32677,5.52153-6.25749.56735-2.56279.01911-5.21031-.2408-7.77609a16.3189,16.3189,0,0,1,.91651-7.82181,24.65005,24.65005,0,0,1,4.50346-7.00737,60.07132,60.07132,0,0,1,14.49393-11.93437,63.01632,63.01632,0,0,1,19.98-7.67659c.43632-.08652.48667.60508.05319.691Z" transform="translate(-101.5 -239.69073)" fill="#fff"/><path d="M334.7867,619.15419a9.2897,9.2897,0,0,1,.21288-12.0273c.29579-.33362.82811.11035.53193.44441a8.60207,8.60207,0,0,0-.17516,11.18831c.28428.34353-.287.73616-.56965.39458Z" transform="translate(-101.5 -239.69073)" fill="#fff"/><path d="M325.80643,635.9223a17.90514,17.90514,0,0,0,12.59269-3.41962c.35825-.26614.7524.30383.39459.56966a18.62406,18.62406,0,0,1-13.11107,3.53178c-.444-.04936-.31784-.73091.12379-.68182Z" transform="translate(-101.5 -239.69073)" fill="#fff"/><path d="M351.64217,608.05125a5.25842,5.25842,0,0,0,4.13111,2.79826c.44445.0437.31777.72524-.12379.68182a5.89249,5.89249,0,0,1-4.577-3.08549.35812.35812,0,0,1,.08753-.48212.34823.34823,0,0,1,.48212.08753Z" transform="translate(-101.5 -239.69073)" fill="#fff"/></svg>